<mxfile host="app.diagrams.net" modified="2021-09-02T14:08:24.424Z" agent="5.0 (Windows NT 10.0; Win64; x64) AppleWebKit/537.36 (KHTML, like Gecko) Chrome/92.0.4515.159 Safari/537.36" etag="_J0fgXKgRZlY_v5bGTu_" version="14.7.4" type="github">
  <diagram name="Page-1" id="e7e014a7-5840-1c2e-5031-d8a46d1fe8dd">
    <mxGraphModel dx="1266" dy="571" grid="1" gridSize="10" guides="1" tooltips="1" connect="1" arrows="1" fold="1" page="1" pageScale="1" pageWidth="1169" pageHeight="826" background="none" math="0" shadow="0">
      <root>
        <mxCell id="0" />
        <mxCell id="1" parent="0" />
        <mxCell id="2" value="입, 출력 모듈" style="swimlane;whiteSpace=wrap" parent="1" vertex="1">
          <mxGeometry x="164.5" y="128" width="280" height="570" as="geometry" />
        </mxCell>
        <mxCell id="7" value="카메라&#xa;모듈 실행 &#xa;Thread" style="" parent="2" vertex="1">
          <mxGeometry x="60" y="110" width="110" height="50" as="geometry" />
        </mxCell>
        <mxCell id="8" value="동작감지 센서&#xa;실행 Thread" style="" parent="2" vertex="1">
          <mxGeometry x="60" y="182" width="110" height="50" as="geometry" />
        </mxCell>
        <mxCell id="10" value="자이로 센서&#xa;실행 Thread" style="" parent="2" vertex="1">
          <mxGeometry x="60" y="252" width="110" height="50" as="geometry" />
        </mxCell>
        <mxCell id="L_vHGLZkjsYfhN7t1LTF-43" value="압력 센서&lt;br&gt;실행&amp;nbsp;&lt;span&gt;Thread&lt;/span&gt;" style="rounded=0;whiteSpace=wrap;html=1;" vertex="1" parent="2">
          <mxGeometry x="60" y="322" width="110" height="48" as="geometry" />
        </mxCell>
        <mxCell id="L_vHGLZkjsYfhN7t1LTF-44" value="LED 조명&lt;br&gt;실행&amp;nbsp;&lt;span&gt;Thread&lt;/span&gt;" style="rounded=0;whiteSpace=wrap;html=1;" vertex="1" parent="2">
          <mxGeometry x="60" y="402" width="110" height="48" as="geometry" />
        </mxCell>
        <mxCell id="3" value="서버" style="swimlane;whiteSpace=wrap;startSize=23;" parent="1" vertex="1">
          <mxGeometry x="444.5" y="128" width="280" height="570" as="geometry" />
        </mxCell>
        <mxCell id="14" value="" style="edgeStyle=elbowEdgeStyle;elbow=horizontal;verticalAlign=bottom;endArrow=open;endSize=8;strokeColor=#FF0000;endFill=1;rounded=0;exitX=0.577;exitY=0.84;exitDx=0;exitDy=0;exitPerimeter=0;entryX=0.506;entryY=0.023;entryDx=0;entryDy=0;entryPerimeter=0;" parent="3" source="13" target="L_vHGLZkjsYfhN7t1LTF-69" edge="1">
          <mxGeometry x="40" y="20" as="geometry">
            <mxPoint x="73.5" y="82" as="targetPoint" />
            <Array as="points">
              <mxPoint x="76" y="72" />
            </Array>
          </mxGeometry>
        </mxCell>
        <mxCell id="16" value="check for &#xa;new commands" style="" parent="3" vertex="1">
          <mxGeometry x="20" y="220" width="110" height="50" as="geometry" />
        </mxCell>
        <mxCell id="17" value="" style="endArrow=open;strokeColor=#000000;endFill=1;rounded=0;exitX=0.5;exitY=1;exitDx=0;exitDy=0;" parent="3" source="L_vHGLZkjsYfhN7t1LTF-69" edge="1">
          <mxGeometry relative="1" as="geometry">
            <mxPoint x="75" y="160" as="sourcePoint" />
            <mxPoint x="74.5" y="167" as="targetPoint" />
            <Array as="points">
              <mxPoint x="74.5" y="142" />
            </Array>
          </mxGeometry>
        </mxCell>
        <mxCell id="18" value="command queue" style="" parent="3" vertex="1">
          <mxGeometry x="20" y="325" width="110" height="50" as="geometry" />
        </mxCell>
        <mxCell id="19" value="" style="endArrow=open;strokeColor=#FF0000;endFill=1;rounded=0" parent="3" source="16" target="18" edge="1">
          <mxGeometry relative="1" as="geometry" />
        </mxCell>
        <mxCell id="21" value="queue empty" style="rhombus;fillColor=#ffffc0;strokeColor=#ff0000;" parent="3" vertex="1">
          <mxGeometry x="150" y="225" width="80" height="40" as="geometry" />
        </mxCell>
        <mxCell id="22" value="yes" style="edgeStyle=elbowEdgeStyle;elbow=horizontal;align=left;verticalAlign=bottom;endArrow=open;endSize=8;strokeColor=#FF0000;exitX=0.5;exitY=0;endFill=1;rounded=0;entryX=0.75;entryY=0.5;entryPerimeter=0" parent="3" source="21" target="25" edge="1">
          <mxGeometry x="-1" relative="1" as="geometry">
            <mxPoint x="160" y="150" as="targetPoint" />
            <Array as="points">
              <mxPoint x="190" y="180" />
            </Array>
          </mxGeometry>
        </mxCell>
        <mxCell id="23" value="no" style="edgeStyle=elbowEdgeStyle;elbow=horizontal;align=left;verticalAlign=top;endArrow=open;endSize=8;strokeColor=#FF0000;endFill=1;rounded=0" parent="3" source="21" target="30" edge="1">
          <mxGeometry x="-1" relative="1" as="geometry">
            <mxPoint x="190" y="305" as="targetPoint" />
          </mxGeometry>
        </mxCell>
        <mxCell id="24" value="" style="endArrow=open;strokeColor=#FF0000;endFill=1;rounded=0" parent="3" source="16" target="21" edge="1">
          <mxGeometry relative="1" as="geometry" />
        </mxCell>
        <mxCell id="25" value="" style="shape=line;strokeWidth=6;strokeColor=#ff0000;rotation=90" parent="3" vertex="1">
          <mxGeometry x="130" y="127.5" width="50" height="15" as="geometry" />
        </mxCell>
        <mxCell id="26" value="" style="edgeStyle=elbowEdgeStyle;elbow=horizontal;verticalAlign=bottom;endArrow=open;endSize=8;strokeColor=#FF0000;endFill=1;rounded=0" parent="3" source="25" edge="1">
          <mxGeometry x="130" y="90" as="geometry">
            <mxPoint x="130" y="135" as="targetPoint" />
          </mxGeometry>
        </mxCell>
        <mxCell id="30" value="dispatch&#xa;command&#xa;worker thread" style="" parent="3" vertex="1">
          <mxGeometry x="140" y="325" width="110" height="50" as="geometry" />
        </mxCell>
        <mxCell id="31" value="critical&#xa;section" style="shape=note;whiteSpace=wrap;size=17" parent="3" vertex="1">
          <mxGeometry x="105" y="490" width="100" height="50" as="geometry" />
        </mxCell>
        <mxCell id="32" value="" style="endArrow=none;strokeColor=#FF0000;endFill=0;rounded=0;dashed=1" parent="3" source="18" target="31" edge="1">
          <mxGeometry relative="1" as="geometry" />
        </mxCell>
        <mxCell id="34" value="" style="whiteSpace=wrap;strokeColor=#FF0000;fillColor=#FF0000" parent="3" vertex="1">
          <mxGeometry x="245" y="395" width="5" height="45" as="geometry" />
        </mxCell>
        <mxCell id="41" value="" style="edgeStyle=elbowEdgeStyle;elbow=horizontal;entryX=0;entryY=0.5;strokeColor=#FF0000;endArrow=open;endFill=1;rounded=0" parent="3" source="30" target="34" edge="1">
          <mxGeometry width="100" height="100" relative="1" as="geometry">
            <mxPoint x="60" y="480" as="sourcePoint" />
            <mxPoint x="160" y="380" as="targetPoint" />
            <Array as="points">
              <mxPoint x="195" y="400" />
            </Array>
          </mxGeometry>
        </mxCell>
        <mxCell id="L_vHGLZkjsYfhN7t1LTF-69" value="메인 스레드&amp;nbsp;&lt;br&gt;시작" style="rounded=1;whiteSpace=wrap;html=1;" vertex="1" parent="3">
          <mxGeometry x="17.5" y="87.5" width="115" height="55" as="geometry" />
        </mxCell>
        <mxCell id="L_vHGLZkjsYfhN7t1LTF-71" value="" style="shape=line;strokeWidth=6;strokeColor=#000000;rotation=0;fillColor=#FFFFFF;" vertex="1" parent="3">
          <mxGeometry x="50" y="160" width="50" height="15" as="geometry" />
        </mxCell>
        <mxCell id="13" value="" style="ellipse;shape=startState;fillColor=#000000;strokeColor=#ff0000;" parent="3" vertex="1">
          <mxGeometry x="60" y="40" width="30" height="30" as="geometry" />
        </mxCell>
        <mxCell id="L_vHGLZkjsYfhN7t1LTF-82" value="" style="endArrow=none;html=1;" edge="1" parent="3">
          <mxGeometry width="50" height="50" relative="1" as="geometry">
            <mxPoint x="65.5" y="192" as="sourcePoint" />
            <mxPoint x="65.5" y="169" as="targetPoint" />
            <Array as="points" />
          </mxGeometry>
        </mxCell>
        <mxCell id="4" value="클라우드" style="swimlane;whiteSpace=wrap" parent="1" vertex="1">
          <mxGeometry x="724.5" y="128" width="280" height="570" as="geometry" />
        </mxCell>
        <mxCell id="33" value="process&#xa;command" style="" parent="4" vertex="1">
          <mxGeometry x="90" y="405" width="110" height="50" as="geometry" />
        </mxCell>
        <mxCell id="35" value="" style="edgeStyle=elbowEdgeStyle;elbow=horizontal;strokeColor=#FF0000;endArrow=open;endFill=1;rounded=0;entryX=0.25;entryY=0.5;entryPerimeter=0" parent="4" target="25" edge="1">
          <mxGeometry width="100" height="100" relative="1" as="geometry">
            <mxPoint x="-30" y="410" as="sourcePoint" />
            <mxPoint x="-120" y="120" as="targetPoint" />
            <Array as="points">
              <mxPoint x="-10" y="135" />
            </Array>
          </mxGeometry>
        </mxCell>
        <mxCell id="37" value="" style="edgeStyle=none;strokeColor=#FF0000;endArrow=open;endFill=1;rounded=0" parent="4" target="33" edge="1">
          <mxGeometry width="100" height="100" relative="1" as="geometry">
            <mxPoint x="-30" y="429.5" as="sourcePoint" />
            <mxPoint x="90" y="429.5" as="targetPoint" />
          </mxGeometry>
        </mxCell>
        <mxCell id="38" value="" style="ellipse;shape=endState;fillColor=#000000;strokeColor=#ff0000" parent="4" vertex="1">
          <mxGeometry x="130" y="500" width="30" height="30" as="geometry" />
        </mxCell>
        <mxCell id="39" value="" style="endArrow=open;strokeColor=#FF0000;endFill=1;rounded=0" parent="4" source="33" target="38" edge="1">
          <mxGeometry relative="1" as="geometry" />
        </mxCell>
        <mxCell id="12" value="" style="edgeStyle=elbowEdgeStyle;elbow=horizontal;strokeColor=#000000;endArrow=open;endFill=1;rounded=0;" parent="1" edge="1">
          <mxGeometry width="100" height="100" relative="1" as="geometry">
            <mxPoint x="510" y="320" as="sourcePoint" />
            <mxPoint x="335" y="263" as="targetPoint" />
            <Array as="points">
              <mxPoint x="380" y="294" />
              <mxPoint x="380" y="310" />
              <mxPoint x="380" y="280" />
              <mxPoint x="470" y="310" />
              <mxPoint x="380" y="290" />
              <mxPoint x="194.5" y="378" />
            </Array>
          </mxGeometry>
        </mxCell>
        <mxCell id="L_vHGLZkjsYfhN7t1LTF-72" value="" style="edgeStyle=elbowEdgeStyle;elbow=horizontal;strokeColor=#000000;endArrow=open;endFill=1;rounded=0;entryX=1;entryY=0.5;entryDx=0;entryDy=0;" edge="1" parent="1" target="8">
          <mxGeometry width="100" height="100" relative="1" as="geometry">
            <mxPoint x="470" y="320" as="sourcePoint" />
            <mxPoint x="340" y="370" as="targetPoint" />
            <Array as="points">
              <mxPoint x="380" y="350" />
              <mxPoint x="190" y="485" />
            </Array>
          </mxGeometry>
        </mxCell>
        <mxCell id="L_vHGLZkjsYfhN7t1LTF-73" value="" style="edgeStyle=elbowEdgeStyle;elbow=horizontal;strokeColor=#000000;endArrow=open;endFill=1;rounded=0;" edge="1" parent="1" target="L_vHGLZkjsYfhN7t1LTF-43">
          <mxGeometry width="100" height="100" relative="1" as="geometry">
            <mxPoint x="380" y="400" as="sourcePoint" />
            <mxPoint x="330" y="550" as="targetPoint" />
            <Array as="points">
              <mxPoint x="380" y="480" />
              <mxPoint x="100" y="574.9999999999999" />
            </Array>
          </mxGeometry>
        </mxCell>
        <mxCell id="L_vHGLZkjsYfhN7t1LTF-74" value="" style="edgeStyle=elbowEdgeStyle;elbow=horizontal;strokeColor=#000000;endArrow=open;endFill=1;rounded=0;entryX=1;entryY=0.5;entryDx=0;entryDy=0;" edge="1" parent="1" target="10">
          <mxGeometry width="100" height="100" relative="1" as="geometry">
            <mxPoint x="500" y="320" as="sourcePoint" />
            <mxPoint x="380" y="460" as="targetPoint" />
            <Array as="points">
              <mxPoint x="380" y="380" />
              <mxPoint x="380" y="380" />
              <mxPoint x="380" y="450" />
              <mxPoint x="90" y="604.9999999999999" />
            </Array>
          </mxGeometry>
        </mxCell>
        <mxCell id="L_vHGLZkjsYfhN7t1LTF-75" value="" style="edgeStyle=elbowEdgeStyle;elbow=horizontal;strokeColor=#000000;endArrow=open;endFill=1;rounded=0;entryX=1;entryY=0.5;entryDx=0;entryDy=0;" edge="1" parent="1" target="L_vHGLZkjsYfhN7t1LTF-44">
          <mxGeometry width="100" height="100" relative="1" as="geometry">
            <mxPoint x="470" y="320" as="sourcePoint" />
            <mxPoint x="340" y="630" as="targetPoint" />
            <Array as="points">
              <mxPoint x="380" y="430" />
              <mxPoint x="440" y="310" />
              <mxPoint x="380" y="480" />
              <mxPoint x="90" y="614.9999999999999" />
            </Array>
          </mxGeometry>
        </mxCell>
        <mxCell id="L_vHGLZkjsYfhN7t1LTF-84" value="MQTT&#xa;Client" style="" vertex="1" parent="1">
          <mxGeometry x="420" y="30" width="110" height="50" as="geometry" />
        </mxCell>
        <mxCell id="L_vHGLZkjsYfhN7t1LTF-85" value="MQTT&#xa;Publisher" style="" vertex="1" parent="1">
          <mxGeometry x="540" y="30" width="110" height="50" as="geometry" />
        </mxCell>
        <mxCell id="L_vHGLZkjsYfhN7t1LTF-86" value="비디오 스트리밍&#xa;스레드" style="" vertex="1" parent="1">
          <mxGeometry x="139.5" y="30" width="110" height="50" as="geometry" />
        </mxCell>
        <mxCell id="L_vHGLZkjsYfhN7t1LTF-87" value="jpg 파일 생성 &#xa;스래드" style="" vertex="1" parent="1">
          <mxGeometry x="260" y="70" width="110" height="50" as="geometry" />
        </mxCell>
        <mxCell id="L_vHGLZkjsYfhN7t1LTF-88" value="방문자 행동 감지&#xa;스레드" style="" vertex="1" parent="1">
          <mxGeometry x="249.5" y="20" width="110" height="50" as="geometry" />
        </mxCell>
        <mxCell id="L_vHGLZkjsYfhN7t1LTF-89" value="조명 제어 스레드" style="" vertex="1" parent="1">
          <mxGeometry x="690" y="30" width="110" height="50" as="geometry" />
        </mxCell>
      </root>
    </mxGraphModel>
  </diagram>
</mxfile>
